<?xml version="1.0" encoding="utf-8"?>
<!-- Generator: Adobe Illustrator 16.0.3, SVG Export Plug-In . SVG Version: 6.00 Build 0)  -->
<!DOCTYPE svg PUBLIC "-//W3C//DTD SVG 1.1//EN" "http://www.w3.org/Graphics/SVG/1.1/DTD/svg11.dtd">
<svg version="1.1" id="Capa_1" xmlns="http://www.w3.org/2000/svg" xmlns:xlink="http://www.w3.org/1999/xlink" x="0px" y="0px"
	 width="133.822px" height="180px" viewBox="0 0 133.822 180" enable-background="new 0 0 133.822 180" xml:space="preserve">
<g>
	<path fill="#CD5B1A" d="M117.639,73.015c-0.964-0.092-1.968-0.031-3.001,0.203c-2.873,0.654-8.793,2.698-17.864,5.357
		c5.695-6.418,9.158-14.861,9.158-24.118c0-15.587-9.807-28.878-23.584-34.054c-5.328-3.061-11.5-4.82-18.085-4.82
		c-20.087,0-36.371,16.284-36.371,36.372c0,12.394,6.204,23.334,15.671,29.9c-15.934-4.174-25.702-7.734-29.674-8.638
		C1.034,70.3-7.261,94.317,9.036,100.757c0.722,0.285,4.13,2.04,5.299,2.502c7.941,3.139,16.5,6.223,22.75,8.909
		c2.01,1.086,3.348,2.068,3.731,2.91c1.503,3.307-15.616,31.397-19.237,39.377c-4.141,9.127-1.969,17.473,4.787,21.025
		c0.965,0.508,6.52,3.211,8.468,3.721c9.177,2.404,17.677-0.125,23.312-14.42c4.054-10.283,7.208-12.941,11.415-12.941
		c0.125,0,0.246,0.012,0.369,0.016c1.855,1.938,3.685,5.189,5.748,10.424c2.426,6.154,5.385,10.127,8.7,12.463
		c1.598,1.127,8.52,4.369,10.389,4.818c3.018,0.729,6.227,0.504,9.522-0.359c9.177-2.404,12.688-11.813,7.956-22.242
		c-3.62-7.982-20.74-36.071-19.237-39.377s17.625-8.727,31.78-14.323c12.04-4.758,10.657-19.103,3.931-25.1
		C127.165,76.776,119.757,73.217,117.639,73.015z"/>
	<path fill="#F18816" d="M64.262,149.338c-4.208,0-7.361,2.658-11.415,12.941c-5.635,14.295-14.135,16.824-23.312,14.42
		s-12.688-11.813-7.957-22.244c3.621-7.98,20.741-36.071,19.237-39.377c-1.503-3.307-17.625-8.725-31.78-14.321
		c-16.297-6.44-8.002-30.457,4.852-27.539c3.972,0.903,13.741,4.464,29.674,8.638c-9.467-6.566-15.671-17.507-15.671-29.9
		c0-20.088,16.284-36.372,36.371-36.372s36.371,16.284,36.371,36.372c0,12.394-6.203,23.334-15.67,29.9
		c15.934-4.174,25.702-7.734,29.675-8.638c12.854-2.918,21.148,21.099,4.852,27.539c-14.156,5.596-30.277,11.014-31.78,14.321
		c-1.504,3.307,15.616,31.397,19.237,39.377c4.732,10.432,1.22,19.84-7.957,22.244s-17.677-0.125-23.312-14.42
		C71.624,151.997,68.47,149.338,64.262,149.338z"/>
	<g>
		<circle fill="#FFFFFF" cx="75.152" cy="51.135" r="3.521"/>
		<circle fill="#FFFFFF" cx="53.37" cy="51.135" r="3.521"/>
		<path fill="#FFFFFF" d="M51.926,58.489c-1.43,0.044-2.817,0.8-3.37,2.242c-2.785,7.28,6.205,12.453,12.043,13.137
			c7.495,0.876,19.064-1.795,19.764-11.09c-0.063-2.224-1.49-4.406-3.583-4.518C76.214,58.231,53.132,58.451,51.926,58.489z"/>
		<path fill="#E44445" d="M54.643,60.974c-1.113,0.03-2.599-0.169-3.029,0.805c-2.168,4.915,5.237,9.118,9.783,9.579
			c5.835,0.592,15.024-0.365,16.158-8.742c-0.048-1.502-1.931-1.721-3.561-1.795C73.553,60.8,55.583,60.949,54.643,60.974z"/>
	</g>
	<g>
		<circle fill="#FFFFFF" cx="65.402" cy="104.066" r="4.507"/>
		<circle fill="#FFFFFF" cx="65.402" cy="126.828" r="4.507"/>
	</g>
	<g>
		<path fill="#E44445" d="M39.868,22.354c0,0,45.606,13.217,66.23,32.603l3.415-9.667c0,0,7.137,12.048,9.015,9.865
			c1.877-2.184,3.144-32.494-11.748-45.726C85.475-9.502,51.081,2.795,39.868,22.354z"/>
		<path fill="#FFFFFF" d="M113.22,23.901c-3.446-7.771-9.111-14.248-16.765-18.072c-8.003-4-17.326-4.109-25.7-1.274
			c-1.032,0.349-2.068,0.733-3.103,1.131c-0.111,0.005-0.207,0.041-0.285,0.104c-8.223,3.193-16.43,7.891-22.649,13.688
			c-0.533,0.496,0.266,1.292,0.796,0.797c2.335-2.177,4.958-4.131,7.731-5.915c9.77,1.633,19.194,4.798,27.958,9.419
			c4.689,2.473,9.107,5.444,13.193,8.816c3.851,3.178,8.624,7.241,10.435,12.001c0.008,0.019,0.021,0.028,0.029,0.046
			c-0.942,2.497-1.33,5.637-1.764,7.037c-0.215,0.695,0.873,0.991,1.086,0.299c0.705-2.276,1.561-11.196,5.436-9.481
			c1.785,0.79,2.758,3.416,3.492,5.07c0.791,1.785,1.381,3.687,2.372,5.377c0.366,0.627,1.341,0.061,0.973-0.568
			c-1.052-1.796-1.823-4.723-3.037-7.148c1.497-1.904,2.077-4.104,2.708-6.339c0.748,4.12,1.25,8.269,1.673,12.247
			c0.075,0.716,1.204,0.722,1.126,0C117.97,42.139,116.92,32.241,113.22,23.901z M85.902,3.958c0.063,0.099,0.149,0.187,0.285,0.236
			c3.445,1.244,5.887,4.186,8.244,6.858c2.631,2.983,4.812,6.288,6.784,9.731c3.648,6.366,5.678,13.175,6.855,20.352
			c-0.212,0.027-0.41,0.086-0.604,0.159c-7.62-15.321-21.248-29.764-37.95-35.067c0.239-0.095,0.48-0.198,0.719-0.29
			C75.271,3.978,80.652,3.332,85.902,3.958z M105.47,43.299c-1.806-3.848-5.21-6.955-8.286-9.772
			c-3.965-3.63-8.419-6.715-13.057-9.417c-9.057-5.276-19.17-8.789-29.48-10.633c4.208-2.565,8.73-4.732,13.231-6.584
			c17.065,4.867,30.944,19.518,38.638,35.013C106.118,42.274,105.771,42.748,105.47,43.299z M109.224,41.23
			c-1.246-7.803-3.579-14.982-7.524-21.868c-2.027-3.539-4.438-6.801-7.133-9.855c-1.615-1.832-3.296-3.632-5.301-4.967
			c2.506,0.57,4.959,1.432,7.299,2.6c6.088,3.043,10.337,7.616,13.366,13.001c1.688,7.154,2.427,14.343,0.459,21.506
			C110.033,41.452,109.64,41.324,109.224,41.23z M112.821,44.14c-0.423-0.687-0.904-1.29-1.455-1.783
			c1.75-6.048,1.594-12.148,0.538-18.215c1.688,3.905,2.88,8.106,3.765,12.384C114.796,39.113,114.445,41.884,112.821,44.14z"/>
		<circle fill="#FFFFFF" cx="118.362" cy="54.656" r="7.123"/>
		<g>
			<path fill="#FFFFFF" d="M105.929,58.965c-0.988,0-1.982-0.324-2.814-0.989C73.527,34.287,40.839,26.881,40.52,26.816
				c-2.439-0.498-4.013-2.879-3.515-5.317c0.498-2.438,2.88-4.017,5.317-3.515c1.391,0.284,35.158,7.918,66.427,32.956
				c1.943,1.556,2.258,4.392,0.701,6.335C108.56,58.386,107.251,58.965,105.929,58.965z"/>
		</g>
	</g>
	<g>
		<path fill="#FFFFFF" d="M116.925,97.934c-2.777,2.702-8.091-0.937-6.029-4.424c0.083-0.14,0.19-0.266,0.286-0.398
			c1.8,0.557,3.993,0.602,5.034-0.873c1.775-2.518-1.328-3.756-3.314-2.829c-0.881,0.412-1.689,1.002-2.359,1.705
			c-1.294-0.859-1.243-2.517-0.512-4.092c1.98,0.748,4.202,0.729,5.14-1.164c1.822-3.683-2.592-4.04-4.819-2.22
			c-0.418,0.343-0.818,0.768-1.18,1.241c-3.246-1.778,0.002-5.355,2.572-5.538c1.081-0.077,1.089-1.768,0-1.69
			c-3.077,0.218-7.189,3.331-5.121,6.848c0.342,0.582,0.971,1.172,1.738,1.675c-1.063,2.097-1.225,4.634,0.908,6.062
			c0.09,0.061,0.188,0.119,0.289,0.178c-0.877,1.482-1.148,3.236-0.363,4.916c1.543,3.296,6.363,4.293,8.926,1.799
			C118.902,98.367,117.706,97.173,116.925,97.934z M111.942,85.648c-0.335,0.022-0.675-0.024-1.011-0.098
			c0.193-0.25,0.396-0.493,0.615-0.716C113.233,83.115,113.578,85.536,111.942,85.648z M113.755,90.869
			c0.422-0.243,2.041-0.19,0.813,0.588c-0.528,0.336-1.306,0.274-1.899,0.248c-0.039-0.003-0.07-0.009-0.109-0.012
			C112.946,91.387,113.347,91.104,113.755,90.869z"/>
		<path fill="#FFFFFF" d="M22.51,86.45c0.54-0.354,1-0.809,1.325-1.361c2.189-3.721-0.952-7.166-4.774-7.437
			c-1.088-0.077-1.081,1.613,0,1.69c2.492,0.176,5.197,2.606,3.129,5.107c-0.165,0.199-0.377,0.351-0.605,0.483
			c-0.056-0.073-0.111-0.149-0.168-0.22c-1.019-1.241-2.784-2.903-4.608-2.267c-1.141,0.397-2.167,1.402-1.512,2.728
			c0.97,1.961,3.526,2.551,5.678,1.955c0.241,0.518,0.431,1.016,0.547,1.416c0.354,1.221-0.455,2.046-1.428,2.557
			c-0.531-0.53-1.13-1.017-1.762-1.445c-1.781-1.206-5.096-0.684-3.992,2.147c0.749,1.922,3.314,1.849,5.26,1.292
			c2.606,3.442-2.688,7.787-5.72,4.838c-0.781-0.761-1.978,0.433-1.195,1.194c2.476,2.409,6.766,1.58,8.607-1.302
			c1.238-1.938,0.942-3.786-0.087-5.369C23.6,91.136,23.522,88.584,22.51,86.45z M19.898,85.546
			c-0.346,0.033-0.691,0.067-1.037,0.102c-1.131,0.165-2.5-1.049-1.326-1.657c0.666-0.345,1.926,0.811,2.472,1.526
			C19.972,85.526,19.933,85.538,19.898,85.546z M15.893,90.796c0.086-0.604,1.251,0.156,2.215,0.911
			C17.162,91.793,15.762,91.722,15.893,90.796z"/>
		<path fill="#FFFFFF" d="M41.528,162.362c-0.744-0.203-1.555-0.209-2.361-0.07c-0.808-2.193-2.556-3.74-5.329-3.514
			c-0.257-1.662-1.112-3.1-2.936-3.826c-3.407-1.359-7.652,1.256-7.754,4.871c-0.031,1.09,1.659,1.088,1.69,0
			c0.115-4.057,6.841-4.852,7.316-0.58c-2.178,1.104-4.875,4.102-3.362,6.17c2.114,2.891,4.19-0.482,4.74-2.596
			c0.198-0.76,0.334-1.549,0.378-2.326c0.689-0.094,1.404-0.018,2.086,0.287c0.846,0.379,1.362,1.104,1.669,1.953
			c-2.376,0.988-4.281,3.246-3.608,5.854c0.353,1.365,1.876,1.645,3.027,1.377c1.55-0.359,2.484-2.318,2.588-3.75
			c0.057-0.791,0.025-1.578-0.093-2.33c0.191-0.033,0.384-0.078,0.572-0.09c3.468-0.207,2.711,4.314,1.297,5.865
			c-0.732,0.805,0.459,2.004,1.195,1.195C44.749,168.542,45.46,163.436,41.528,162.362z M31.618,163.352
			c-0.69,2.182-1.905,1.074-0.851-0.73c0.34-0.58,0.808-1.055,1.34-1.42C32.009,161.934,31.839,162.657,31.618,163.352z
			 M37.914,166.577c-0.247,1.492-2.684,0.516-1.313-1.107c0.377-0.445,0.871-0.793,1.406-1.068
			C38.063,165.165,38.021,165.93,37.914,166.577z"/>
		<path fill="#FFFFFF" d="M99.03,155.637c-2.015,0.275-3.161,1.809-3.677,3.617c-0.08-0.01-0.162-0.023-0.237-0.027
			c-2.544-0.156-3.998,1.363-4.769,3.357c-0.729-0.23-1.42-0.326-1.964-0.23c-4.079,0.73-4.759,5.371-2.507,8.338
			c0.65,0.857,2.119,0.016,1.46-0.854c-1.177-1.551-1.634-3.486-0.258-5.102c0.759-0.889,1.794-0.926,2.804-0.57
			c-0.186,0.9-0.27,1.83-0.279,2.703c-0.038,3.51,3.936,4.723,5.336,1.361c0.778-1.869-0.999-3.85-3.042-4.98
			c0.519-1.418,1.477-2.438,3.155-2.299c-0.078,0.992-0.007,1.977,0.193,2.814c0.609,2.545,3.729,3.564,4.939,0.816
			c0.908-2.059-1.197-3.99-3.232-4.867c1.4-3.713,7.427-2.91,7.724,1.775c0.068,1.084,1.76,1.09,1.689,0
			C106.121,157.625,102.813,155.124,99.03,155.637z M92.935,166.436c1.286,1.705-1.499,2.166-1.64,0.434
			c-0.051-0.619,0.035-1.244,0.151-1.855C92.066,165.465,92.596,165.989,92.935,166.436z M98.502,163.108
			c0.717,1.146-0.836,1.766-1.391,0.838c-0.418-0.701-0.438-1.656-0.449-2.438c-0.001-0.023,0.004-0.043,0.004-0.066
			C97.41,161.838,98.069,162.418,98.502,163.108z"/>
	</g>
</g>
</svg>
