<?xml version="1.0" encoding="utf-8"?>
<!-- Generator: Adobe Illustrator 16.0.3, SVG Export Plug-In . SVG Version: 6.00 Build 0)  -->
<!DOCTYPE svg PUBLIC "-//W3C//DTD SVG 1.1//EN" "http://www.w3.org/Graphics/SVG/1.1/DTD/svg11.dtd">
<svg version="1.1" xmlns="http://www.w3.org/2000/svg" xmlns:xlink="http://www.w3.org/1999/xlink" x="0px" y="0px"
	 width="92.426px" height="212.183px" viewBox="0 0 92.426 212.183" enable-background="new 0 0 92.426 212.183"
	 xml:space="preserve">
<g id="Capa_1">
	<g>
		<g>
			<path fill="#12524F" d="M72.542,136.939c0,0,6.503,8.979,5.902,19.167c-0.307,5.19-1.119,7.027-7.804,11.51l-0.845,18.163
				c0,0,11.017-2.295,17.412-11.923c8.387-12.622,7.977-28.351-8.5-39.916L72.542,136.939z"/>
		</g>
		<g>
			<path fill="#12524F" d="M21.044,134.939c0,0-6.503,8.979-5.902,19.167c0.307,5.19,1.119,7.027,7.804,11.51l0.845,18.163
				c0,0-11.017-2.295-17.412-11.923c-8.387-12.622-7.977-28.351,8.5-39.916L21.044,134.939z"/>
		</g>
		<path fill="#F18816" d="M73.385,179.515c0,0,2.637,14.85-3.053,29.836h-6.531c0,0,2.732-18.734-3.139-29.836H73.385z"/>
		<g>
			<path fill="#F0AA1D" d="M63.803,182.318c-0.24-0.982-0.54-1.924-0.935-2.803h-1.227c0.897,1.758,1.29,3.842,1.83,5.707
				c0.908,3.141,1.461,6.363,1.682,9.623c0.326,4.797,0.252,9.715-0.426,14.506h1.119c0.82-5.779,0.822-11.771,0.137-17.498
				C65.59,188.58,64.584,185.5,63.803,182.318z"/>
			<path fill="#F0AA1D" d="M66.061,179.515c2.391,9.775,2.277,19.92,0.592,29.836h1.125c1.666-9.914,1.779-20.061-0.568-29.836
				H66.061z"/>
			<path fill="#F0AA1D" d="M72.135,179.515h-1.133c1.85,9.953,1.041,20.129-1.779,29.836h1.109c0.088-0.234,0.17-0.471,0.256-0.705
				C73.205,199.152,73.902,189.22,72.135,179.515z"/>
		</g>
		<path fill="#F18816" d="M22.09,179.515c0,0-2.637,14.85,3.053,29.836h6.531c0,0-2.732-18.734,3.139-29.836H22.09z"/>
		<g>
			<path fill="#F0AA1D" d="M31.672,182.318c0.24-0.982,0.539-1.924,0.934-2.803h1.227c-0.898,1.758-1.29,3.842-1.831,5.707
				c-0.907,3.141-1.46,6.363-1.68,9.623c-0.327,4.797-0.252,9.715,0.425,14.506h-1.119c-0.82-5.779-0.822-11.771-0.136-17.498
				C29.885,188.58,30.892,185.5,31.672,182.318z"/>
			<path fill="#F0AA1D" d="M29.414,179.515c-2.39,9.775-2.276,19.92-0.59,29.836h-1.126c-1.666-9.914-1.78-20.061,0.567-29.836
				H29.414z"/>
			<path fill="#F0AA1D" d="M23.339,179.515h1.134c-1.849,9.953-1.042,20.129,1.778,29.836h-1.108
				c-0.089-0.234-0.17-0.471-0.255-0.705C22.27,199.152,21.572,189.22,23.339,179.515z"/>
		</g>
		<path fill="#D91529" d="M75.189,198.527l-12.074-1.109l0.685,14.016c0,0,9.861,0.832,15.412,0.832s4.441-5.281,1.803-5.764
			c0,0,0.92,2.572-1.064,2.85c-1.986,0.277-7.299-2.221-7.299-2.221L75.189,198.527z"/>
		<path fill="#D91529" d="M20.286,198.527l12.073-1.109l-0.685,14.016c0,0-9.862,0.832-15.413,0.832s-4.44-5.281-1.804-5.764
			c0,0-0.919,2.572,1.066,2.85c1.986,0.277,7.298-2.221,7.298-2.221L20.286,198.527z"/>
		<g>
			<path fill="#12524F" d="M69.221,135.162c0,0,16.652,29.419,8.465,43.296c-8.186,13.877-21.808,15.264-29.948,15.264
				c-8.14,0-21.762-1.387-29.949-15.264c-8.188-13.877,8.465-43.296,8.465-43.296H69.221z"/>
			<path fill="#557128" d="M47.739,184.869c19.601,0,29.56-5.771,29.56-5.771c2.92-3.951,2.725-10.01,2.725-10.01
				s-12.324,7.977-32.284,7.977c-19.965,0-32.288-7.977-32.288-7.977s-0.256,6.725,2.723,10.01
				C18.174,179.097,28.135,184.869,47.739,184.869z"/>
			<g>
				<path fill="#F0AA1D" d="M50.439,175.146h-5.403c-3.292,0-5.959,2.668-5.959,5.959c0,3.293,2.667,5.961,5.959,5.961h5.403
					c3.292,0,5.959-2.668,5.959-5.961C56.398,177.814,53.73,175.146,50.439,175.146z M48.982,184.869h-2.488
					c-2.08,0-3.766-1.686-3.766-3.764s1.686-3.762,3.766-3.762h2.488c2.078,0,3.763,1.684,3.763,3.762
					S51.061,184.869,48.982,184.869z"/>
			</g>
		</g>
		<g>
			<g>
				<path fill="#F9F8ED" d="M75.414,115.682c3.9,6.105,12.453,24.701,0.629,26.089c1.76,5.967,2.895,12.488,0.754,18.594
					c-2.264,6.107-6.416,5.969-11.195,3.609c-3.146,8.465-7.397,17.623-17.864,17.623c-10.465,0-14.719-9.158-17.865-17.623
					c-4.779,2.359-8.93,2.498-11.195-3.609c-2.14-6.105-1.007-12.627,0.754-18.594c-11.826-1.388-2.63-19.619,0.629-26.089
					c0,0,1.834-22.203,27.326-22.203C72.879,93.479,75.414,115.682,75.414,115.682z"/>
			</g>
			<path fill="#FAC3B9" d="M47.737,98.195c9.07,0,21.704,2.267,23.647,16.359c1.945,14.091-16.845,13.282-23.647,13.282
				s-25.592,0.809-23.648-13.282C26.034,100.461,38.668,98.195,47.737,98.195z"/>
			<g>
				<ellipse fill="#F76679" cx="47.738" cy="116.692" rx="8.68" ry="7.094"/>
				<circle fill="#F28B93" cx="63.802" cy="115.879" r="3.14"/>
				<ellipse fill="#181816" cx="60.807" cy="112.536" rx="1.308" ry="1.541"/>
				<circle fill="#F28B93" cx="31.674" cy="115.879" r="3.14"/>
				<ellipse fill="#181816" cx="34.668" cy="112.536" rx="1.308" ry="1.541"/>
				<g>
					<path fill="#F76679" d="M38.958,130.691c4.241,4.912,13.353,5.633,16.92-0.344c0.366-0.617-0.593-1.174-0.959-0.561
						c-3.214,5.385-11.438,4.449-15.175,0.119C39.275,129.363,38.493,130.154,38.958,130.691L38.958,130.691z"/>
				</g>
			</g>
		</g>
		<g>
			<path fill="#D4EADF" d="M47.737,101.883c-19.964,0-27.676,13.799-27.676,13.799s-6.883-9.003-1.67-27.356
				c5.214-18.353,40.67-58.188,31.076-78.21c0,0,10.515,5.817,23.566,36.915c10.504,25.028,16.895,53.183,2.381,68.652
				C75.414,115.682,66.496,101.883,47.737,101.883z"/>
			<circle fill="#FFFFFF" cx="49.467" cy="10.115" r="10.032"/>
			<g>
				<path fill="#72BA9B" d="M74.576,96.391c-1.873-2.431-4.617-3.022-7.512-2.561c-3.815,0.608-6.975,3.605-10.921,3.457
					c-3.2-0.121-5.835-3.26-8.729-4.351c-6.741-2.545-9.979,2.752-15.352,5.585c-3.758,1.98-8.139-1.281-12.115-1.052
					c-1.273,0.073-2.401,0.523-3.412,1.189c-0.069,1.044-0.101,2.045-0.093,2.992c0.569-0.543,1.18-1.046,1.903-1.458
					c2.278-1.296,5.139-0.171,7.414,0.528c3.076,0.946,5.675,0.788,8.448-0.855c2.429-1.441,4.341-3.585,6.862-4.898
					c3.521-1.833,7.101,0.758,9.983,2.601c2.341,1.5,4.659,2.193,7.431,1.781c3.826-0.571,6.853-3.523,10.882-3.496
					c4.125,0.028,4.609,5.616,8.098,6.891c1.619,0.592,3.283,0.546,4.916,0.165c0.227-0.828,0.432-1.668,0.605-2.524
					c-0.992,0.317-2.014,0.539-3.09,0.599C77.162,101.136,75.975,98.205,74.576,96.391z"/>
				<path fill="#72BA9B" d="M78.967,89.094c-2.404,0.158-4.209-3.304-5.873-4.624c-2.814-2.232-6.141-2.39-9.406-1.105
					c-1.576,0.62-2.924,1.753-4.305,2.704c-2.961,2.036-5.076,1.142-7.651-0.907c-2.354-1.875-5.445-4.123-8.667-3.255
					c-3.667,0.986-5.402,4.063-8.424,6.053c-4.142,2.729-8.031-2.395-12.196-2.489c-1.174-0.026-2.249,0.172-3.266,0.503
					c-0.307,0.816-0.575,1.603-0.787,2.351c-0.037,0.129-0.066,0.252-0.102,0.379c0.41-0.228,0.832-0.438,1.276-0.616
					c2.479-1.001,4.811-0.023,7.002,1.127c2.691,1.41,5.659,2.561,8.584,0.987c2.702-1.451,4.353-4.158,7.003-5.654
					c4.673-2.638,7.905,3.321,11.717,4.68c3.034,1.081,5.501-0.426,7.945-2.162c4.321-3.069,8.334-2.964,11.881,1.131
					c2.053,2.372,4.021,3.494,7.207,2.859c1.053-0.209,2.004-0.637,2.963-1.043c-0.012-0.84-0.037-1.686-0.084-2.54
					C82.195,88.037,80.754,88.976,78.967,89.094z"/>
				<path fill="#72BA9B" d="M31.177,76.35c2.842,1.301,5.287,1.187,7.935-0.445c2.176-1.342,3.813-3.392,5.946-4.796
					c3.454-2.274,6.766,0.613,9.842,2.159c2.266,1.138,4.377,0.914,6.585-0.23c2.071-1.074,3.594-2.852,5.817-3.712
					c2.516-0.974,4.732,0.441,6.666,1.903c2.33,1.761,5.186,2.801,7.889,2.698c-0.15-0.681-0.307-1.361-0.471-2.044
					c-4.178-0.444-8.832-5.26-12.941-5.059c-3.715,0.183-5.97,3.533-9.191,4.819c-2.842,1.136-6.421-2.25-8.949-3.236
					c-5.159-2.009-8.629,3.055-12.314,5.582c-3.703,2.541-6.417-0.683-10.093-1.151c-0.695-0.089-1.37-0.095-2.034-0.065
					c-0.493,0.847-0.971,1.682-1.435,2.504C26.543,74.938,28.698,75.215,31.177,76.35z"/>
				<path fill="#72BA9B" d="M44.167,62.159c4.313,1.328,7.842,1.68,11.566-1.203c2.112-1.635,3.587-4.007,6.154-5.037
					c2.753-1.105,5.224,1.922,7.445,3.051c2.504,1.272,5.307,0.427,8.074-0.563c-0.256-0.739-0.518-1.479-0.785-2.217
					c-0.324,0.114-0.648,0.229-0.975,0.341c-1.521,0.528-3.273,0.998-4.869,0.63c-1.104-0.254-2.137-1.232-3.027-1.878
					c-4.551-3.301-8.227-1.101-11.764,2.389c-2.444,2.409-4.688,3.841-8.182,3.182c-2.58-0.486-4.971-1.48-7.605-1.764
					c-2.434-0.264-4.708,0.229-6.825,1.155c-0.797,1.322-1.59,2.631-2.373,3.925C34.941,61.529,39.093,60.596,44.167,62.159z"/>
				<path fill="#72BA9B" d="M48.991,49.949c2.985,1.787,5.844,1.198,8.155-1.224c1.114-1.165,2.048-2.463,3.247-3.552
					c2.738-2.491,5.183-0.802,7.724,0.792c1.627,1.023,3.121,1.604,5.031,1.346c-0.039-0.093-0.076-0.189-0.115-0.282
					c-0.297-0.707-0.59-1.388-0.885-2.068c-2.168-0.116-3.83-1.65-5.939-2.713c-3.81-1.915-7.114,0.774-9.493,3.584
					c-1.273,1.505-2.544,3.287-4.763,2.927c-2.419-0.392-4.474-2.533-6.835-3.297c-0.969-0.313-2.008-0.393-3.068-0.306
					c-0.468,0.881-0.945,1.764-1.431,2.647c0.177-0.05,0.353-0.103,0.531-0.148C44.223,46.87,46.481,48.447,48.991,49.949z"/>
				<path fill="#72BA9B" d="M55.908,38.438c2.761-0.394,4.511-2.47,6.528-4.205c1.228-1.055,2.423-1.719,3.638-2.034
					c-0.383-0.723-0.76-1.427-1.135-2.105c-0.045,0.014-0.088,0.021-0.133,0.038c-3.44,1.236-5.374,5.043-8.807,6.068
					c-1.926,0.575-4.765-1.083-6.461-1.816c-0.685-0.295-1.392-0.493-2.111-0.623c-0.283,0.706-0.578,1.416-0.885,2.129
					c0.452,0.054,0.911,0.141,1.375,0.26C50.576,36.834,53.024,38.848,55.908,38.438z"/>
			</g>
		</g>
		<g>
			<g>
				<g>
					<path fill="#ED213D" d="M74.219,120.9c-0.131,10.412-3.016,37.311-4.936,39.525c-1.932,2.377-6.505,1.945-9.231,1.859
						c-4.945-0.125-9.687-0.574-14.598-1.039c-4.912-0.463-9.654-0.912-14.536-1.717c-2.694-0.426-7.268-0.859-8.72-3.559
						c-1.469-2.531,0.737-29.494,2.563-39.748L74.219,120.9z"/>
				</g>
				<g>
					<path fill="#F9F8ED" d="M22.874,131.419c6.841,7.515,15.944,17.728,28.018,30.318c1.282,0.107,2.566,0.203,3.848,0.287
						c-10.749-11.115-21.104-22.605-31.524-34.037C23.097,129.113,22.983,130.261,22.874,131.419z"/>
					<path fill="#F9F8ED" d="M24.205,119.787c13.085,14.285,25.955,28.775,39.557,42.568c1.086-0.035,2.168-0.174,3.139-0.475
						c-14.543-14.654-28.23-30.129-42.194-45.336C24.542,117.503,24.374,118.589,24.205,119.787z"/>
					<path fill="#F9F8ED" d="M33.669,118.066c12.149,13.309,24.169,26.74,36.815,39.576c0.189-0.906,0.381-1.939,0.572-3.08
						c-11.499-11.756-22.51-23.979-33.588-36.137L33.669,118.066z"/>
					<path fill="#F9F8ED" d="M46.738,118.3c3.166,3.48,10.623,12.039,25.438,27.453c0.133-1.072,0.266-2.17,0.393-3.281
						C65.1,134.65,57.81,126.662,50.531,118.66L46.738,118.3z"/>
					<path fill="#F9F8ED" d="M64.081,118.346l-3.8-0.357c4.501,4.932,9.023,9.846,13.599,14.711c0.105-1.166,0.199-2.311,0.285-3.43
						C70.78,125.653,67.425,122.004,64.081,118.346z"/>
					<path fill="#F9F8ED" d="M21.958,143.525c5.156,5.666,10.329,11.318,15.563,16.91c1.304,0.15,2.611,0.293,3.924,0.424
						c-6.5-6.895-12.892-13.893-19.268-20.902C22.096,141.177,22.021,142.373,21.958,143.525z"/>
				</g>
				<path fill="#F0AA1D" d="M69.452,101.538c-2.76-1.201-8.048,2.244-10.319,3.377c-1.461,0.732-2.922,1.492-4.372,2.279
					c4.942-4.482,10.384-10,4.69-14.47c-5.931-4.665-8.734,5.064-10.335,12.419c-0.076-2.889-0.129-5.779-0.581-8.634
					c-0.547-3.455-2.36-7.447-6.471-5.775c-7.293,2.963-2.67,9.925,1.484,15.527c-1.151-0.938-2.308-1.861-3.464-2.77
					c-2.422-1.896-6.436-5.775-9.797-5.693c-1.572,0.039-2.553,1.232-2.827,2.65c-0.448,2.341,2.408,4.824,3.952,6.064
					c4.399,3.537,11.538,5.791,17.07,6.455c5.667,0.395,11.849-0.828,17.158-2.783C68.483,109.14,74.769,103.847,69.452,101.538z
					 M58.578,94.521c4.394,4.119-3.46,10.042-8.082,14.134c0.631-2.596,1.135-5.213,1.787-7.816
					C52.962,98.123,54.776,90.957,58.578,94.521z M41.588,93.292c4.237-4.059,5.178,3.871,5.395,6.469
					c0.233,2.806,0.215,5.611,0.336,8.414c-1.017-1.287-2.145-2.518-3.03-3.742C42.357,101.765,38.395,96.351,41.588,93.292z
					 M29.424,100.989c-0.817-2.671,3.512-0.172,3.749-0.033c4.38,2.588,8.651,5.98,12.452,9.537
					c-3.493-0.828-6.902-2.273-10.084-3.801C33.064,105.503,30.28,103.78,29.424,100.989z M69.448,104.774
					c-0.744,2.602-4.824,3.813-7.078,4.455c-3.363,0.961-7.03,1.705-10.613,1.85c4.416-2.77,9.224-5.211,14.016-7.039
					C66.431,103.788,70.161,102.276,69.448,104.774z"/>
				<g>
					<path fill="#D91529" d="M75.805,121.169c1.41-3.797,2.172-8.266,0.051-8.49c-2.791-0.293-11.805-0.654-16.551-1.273
						c-7.875-0.914-15.815-1.156-23.722-1.732c-4.035-0.209-8.334-0.703-12.355-1.084c-1.41,3.797-2.172,8.268-0.052,8.49
						c2.79,0.293,11.807,0.654,16.554,1.273c7.874,0.916,15.813,1.152,23.718,1.73C67.484,120.294,71.785,120.787,75.805,121.169z"
						/>
				</g>
			</g>
		</g>
		<path fill="#332D34" d="M81.604,135.932c0,0-3.18-6.778-6.083-6.82c-2.898-0.044,0.98,5.717,0.98,5.717s-8.762-3.669-11.77,1.305
			c-2.387,3.948,4.337,12.379,14.233,9.818C78.965,145.952,83.833,140.264,81.604,135.932z"/>
		<path fill="#332D34" d="M14.445,132.288c0,0,4.054-6.293,6.937-5.949c2.878,0.342-1.732,5.537-1.732,5.537
			s9.172-2.471,11.491,2.861c1.838,4.229-5.95,11.69-15.415,7.835C15.727,142.572,11.659,136.285,14.445,132.288z"/>
	</g>
</g>
<g id="Capa_2">
</g>
</svg>
